<?xml version="1.0" encoding="utf-8"?>
<!-- Generator: Adobe Illustrator 27.5.0, SVG Export Plug-In . SVG Version: 6.00 Build 0)  -->
<svg version="1.1" id="Layer_1" xmlns="http://www.w3.org/2000/svg" xmlns:xlink="http://www.w3.org/1999/xlink" x="0px" y="0px"
	 viewBox="0 0 512 512" style="enable-background:new 0 0 512 512;" xml:space="preserve">
<style type="text/css">
	.st0{fill:#0A2F37;}
	.st1{fill:#DAD9D9;}
	.st2{fill:none;stroke:#15793D;stroke-width:0.864;stroke-miterlimit:10;}
	.st3{fill:#DBD9D9;}
</style>
<ellipse class="st0" cx="256" cy="256" rx="251.4" ry="253.3"/>
<circle class="st1" cx="256.9" cy="256.1" r="221.9"/>
<polyline class="st0" points="203.4,240.6 309.9,240.2 203.4,240.7 148.3,455.3 120.6,435.7 222.8,37.4 256.9,28.8 289.4,36.6 
	397.6,434 368,453.3 309.9,240.2 "/>
<path class="st2" d="M249.8,59.2"/>
<polygon class="st3" points="249.8,59.2 263.9,59.6 299.7,197.5 212.3,197.5 "/>
<polygon class="st0" points="366.9,62.5 320.3,155.4 329.8,189.6 385.5,75 "/>
<polygon class="st0" points="193.4,159.3 147.9,62.5 126.3,75.9 181.6,199.6 "/>
<polyline class="st0" points="232.6,236.7 203.4,236.5 243,323.7 203.4,236.5 243,323.7 245.1,482.1 270.6,482.2 269.8,325.6 
	310.3,237 310.3,237 283.8,237.3 256.6,286.4 232.6,236.7 256.4,286 "/>
</svg>
